<?xml version="1.0" encoding="UTF-8"?>
<svg xmlns="http://www.w3.org/2000/svg" viewBox="0 0 800 450" width="800" height="450" role="img" aria-label="Thumbnail — Site invisible sur Google. Diagramme KUMO.">
  <title>Site invisible sur Google — Thumbnail</title>
  <defs>
    <style>
      @import url('https://fonts.googleapis.com/css2?family=Sora:wght@400;600&amp;family=JetBrains+Mono:wght@400;500&amp;family=Instrument+Serif:ital@1&amp;display=swap');
      .display { font-family: 'Instrument Serif', 'Sora', Georgia, serif; font-style: italic; font-weight: 400; }
      .brand   { font-family: 'Sora', 'Helvetica Neue', Arial, sans-serif; font-weight: 600; letter-spacing: 0.04em; }
      .mono    { font-family: 'JetBrains Mono', 'SF Mono', Menlo, monospace; font-weight: 400; letter-spacing: 0.14em; }
    </style>
    <radialGradient id="g" cx="50%" cy="45%" r="70%">
      <stop offset="0%" stop-color="#120a22"/>
      <stop offset="55%" stop-color="#0a0714"/>
      <stop offset="100%" stop-color="#05030c"/>
    </radialGradient>
    <radialGradient id="aura" cx="50%" cy="50%" r="50%">
      <stop offset="0%" stop-color="#8c47d1" stop-opacity="0.25"/>
      <stop offset="100%" stop-color="#8c47d1" stop-opacity="0"/>
    </radialGradient>
    <filter id="sg" x="-10%" y="-10%" width="120%" height="120%">
      <feGaussianBlur stdDeviation="0.9" result="b"/>
      <feMerge><feMergeNode in="b"/><feMergeNode in="SourceGraphic"/></feMerge>
    </filter>
    <g id="tsp">
      <line x1="0" y1="0" x2="130" y2="0" stroke="#8c47d1" stroke-opacity="0.55" stroke-width="0.6"/>
      <circle cx="28" cy="0" r="0.8" fill="#b57dd6" fill-opacity="0.80"/>
      <circle cx="55" cy="0" r="0.8" fill="#b57dd6" fill-opacity="0.75"/>
      <circle cx="82" cy="0" r="0.8" fill="#b57dd6" fill-opacity="0.70"/>
      <circle cx="108" cy="0" r="0.8" fill="#b57dd6" fill-opacity="0.65"/>
      <circle cx="130" cy="0" r="1.1" fill="#d9bff0" fill-opacity="0.95"/>
    </g>
  </defs>

  <rect width="800" height="450" fill="url(#g)"/>
  <rect x="28" y="28" width="744" height="394" fill="none" stroke="#8c47d1" stroke-opacity="0.20" stroke-width="0.5"/>
  <g stroke="#d9bff0" stroke-opacity="0.45" stroke-width="0.8">
    <path d="M 18 36 L 36 36 M 36 18 L 36 36"/>
    <path d="M 782 36 L 764 36 M 764 18 L 764 36"/>
    <path d="M 18 414 L 36 414 M 36 432 L 36 414"/>
    <path d="M 782 414 L 764 414 M 764 432 L 764 414"/>
  </g>

  <g transform="translate(400 190)">
    <circle cx="0" cy="0" r="175" fill="url(#aura)"/>
    <g fill="none" stroke="#8c47d1" stroke-opacity="0.40" stroke-width="0.5">
      <circle cx="0" cy="0" r="28"/>
      <circle cx="0" cy="0" r="54"/>
      <circle cx="0" cy="0" r="80"/>
      <circle cx="0" cy="0" r="108"/>
      <circle cx="0" cy="0" r="130" stroke-opacity="0.55" stroke-width="0.7"/>
    </g>
    <g fill="none" stroke="#b57dd6" stroke-opacity="0.65" stroke-width="0.9" filter="url(#sg)">
      <polygon points="130,0 92,92 0,130 -92,92 -130,0 -92,-92 0,-130 92,-92"/>
    </g>
    <g filter="url(#sg)">
      <use href="#tsp" transform="rotate(0)"/>
      <use href="#tsp" transform="rotate(45)"/>
      <use href="#tsp" transform="rotate(90)"/>
      <use href="#tsp" transform="rotate(135)"/>
      <use href="#tsp" transform="rotate(180)"/>
      <use href="#tsp" transform="rotate(225)"/>
      <use href="#tsp" transform="rotate(270)"/>
      <use href="#tsp" transform="rotate(315)"/>
      <use href="#tsp" transform="rotate(22.5)"/>
      <use href="#tsp" transform="rotate(67.5)"/>
      <use href="#tsp" transform="rotate(112.5)"/>
      <use href="#tsp" transform="rotate(157.5)"/>
      <use href="#tsp" transform="rotate(202.5)"/>
      <use href="#tsp" transform="rotate(247.5)"/>
      <use href="#tsp" transform="rotate(292.5)"/>
      <use href="#tsp" transform="rotate(337.5)"/>
    </g>
    <circle cx="0" cy="0" r="2.5" fill="#f5ebd8" fill-opacity="0.95"/>
  </g>

  <text x="400" y="386" text-anchor="middle" fill="#f5ebd8" class="display" font-size="32">
    Site invisible<tspan fill="#b57dd6"> ?</tspan>
  </text>
  <text x="400" y="408" text-anchor="middle" fill="#b57dd6" fill-opacity="0.85" class="mono" font-size="8.5">
    5 CAUSES &#8212; PME SUISSE ROMANDE
  </text>

  <text x="40" y="46" fill="#f5ebd8" fill-opacity="0.92" class="brand" font-size="10">KUMO</text>
  <text x="760" y="46" text-anchor="end" fill="#b57dd6" fill-opacity="0.70" class="mono" font-size="8">01 / 05</text>
</svg>
