<?xml version="1.0" encoding="UTF-8"?>
<svg xmlns="http://www.w3.org/2000/svg" viewBox="0 0 800 450" width="800" height="450" role="img" aria-label="Thumbnail — Audit SEO 31 points KUMO.">
  <title>Audit SEO 31 points — Thumbnail</title>
  <defs>
    <style>
      @import url('https://fonts.googleapis.com/css2?family=Sora:wght@400;600&amp;family=JetBrains+Mono:wght@400;500&amp;family=Instrument+Serif:ital@1&amp;display=swap');
      .display { font-family: 'Instrument Serif', 'Sora', Georgia, serif; font-style: italic; font-weight: 400; }
      .brand   { font-family: 'Sora', 'Helvetica Neue', Arial, sans-serif; font-weight: 600; letter-spacing: 0.04em; }
      .mono    { font-family: 'JetBrains Mono', 'SF Mono', Menlo, monospace; font-weight: 400; letter-spacing: 0.14em; }
    </style>
    <radialGradient id="g" cx="50%" cy="45%" r="70%">
      <stop offset="0%" stop-color="#120a22"/>
      <stop offset="55%" stop-color="#0a0714"/>
      <stop offset="100%" stop-color="#05030c"/>
    </radialGradient>
    <radialGradient id="aura" cx="50%" cy="50%" r="50%">
      <stop offset="0%" stop-color="#8c47d1" stop-opacity="0.20"/>
      <stop offset="100%" stop-color="#8c47d1" stop-opacity="0"/>
    </radialGradient>
    <filter id="sg" x="-10%" y="-10%" width="120%" height="120%">
      <feGaussianBlur stdDeviation="0.8" result="b"/>
      <feMerge><feMergeNode in="b"/><feMergeNode in="SourceGraphic"/></feMerge>
    </filter>
    <g id="tx">
      <circle cx="0" cy="0" r="5" fill="none" stroke="#b57dd6" stroke-opacity="0.55" stroke-width="0.5"/>
      <line x1="-8" y1="0" x2="-3" y2="0" stroke="#d9bff0" stroke-opacity="0.85" stroke-width="0.6"/>
      <line x1="3"  y1="0" x2="8"  y2="0" stroke="#d9bff0" stroke-opacity="0.85" stroke-width="0.6"/>
      <line x1="0" y1="-8" x2="0" y2="-3" stroke="#d9bff0" stroke-opacity="0.85" stroke-width="0.6"/>
      <line x1="0" y1="3"  x2="0" y2="8"  stroke="#d9bff0" stroke-opacity="0.85" stroke-width="0.6"/>
      <circle cx="0" cy="0" r="1" fill="#b57dd6"/>
    </g>
    <g id="txF">
      <circle cx="0" cy="0" r="5" fill="none" stroke="#f5ebd8" stroke-opacity="0.85" stroke-width="0.7"/>
      <line x1="-8" y1="0" x2="-3" y2="0" stroke="#f5ebd8" stroke-width="0.8"/>
      <line x1="3"  y1="0" x2="8"  y2="0" stroke="#f5ebd8" stroke-width="0.8"/>
      <line x1="0" y1="-8" x2="0" y2="-3" stroke="#f5ebd8" stroke-width="0.8"/>
      <line x1="0" y1="3"  x2="0" y2="8"  stroke="#f5ebd8" stroke-width="0.8"/>
      <circle cx="0" cy="0" r="1.4" fill="#f5ebd8"/>
    </g>
  </defs>

  <rect width="800" height="450" fill="url(#g)"/>
  <rect x="28" y="28" width="744" height="394" fill="none" stroke="#8c47d1" stroke-opacity="0.20" stroke-width="0.5"/>
  <g stroke="#d9bff0" stroke-opacity="0.45" stroke-width="0.8">
    <path d="M 18 36 L 36 36 M 36 18 L 36 36"/>
    <path d="M 782 36 L 764 36 M 764 18 L 764 36"/>
    <path d="M 18 414 L 36 414 M 36 432 L 36 414"/>
    <path d="M 782 414 L 764 414 M 764 432 L 764 414"/>
  </g>

  <!-- central aura -->
  <g transform="translate(400 190)">
    <circle cx="0" cy="0" r="200" fill="url(#aura)"/>
  </g>

  <!-- Crosshair grid: 4 rows x ~7-8 points (total around 31) -->
  <g>
    <!-- Row 1 -->
    <g transform="translate(90 105)"><use href="#tx"/></g>
    <g transform="translate(170 98)"><use href="#tx"/></g>
    <g transform="translate(250 108)"><use href="#txF"/></g>
    <g transform="translate(330 100)"><use href="#tx"/></g>
    <g transform="translate(470 100)"><use href="#tx"/></g>
    <g transform="translate(550 108)"><use href="#txF"/></g>
    <g transform="translate(630 98)"><use href="#tx"/></g>
    <g transform="translate(710 105)"><use href="#tx"/></g>

    <!-- Row 2 -->
    <g transform="translate(90 165)"><use href="#tx"/></g>
    <g transform="translate(170 158)"><use href="#tx"/></g>
    <g transform="translate(250 168)"><use href="#tx"/></g>
    <g transform="translate(550 168)"><use href="#txF"/></g>
    <g transform="translate(630 158)"><use href="#tx"/></g>
    <g transform="translate(710 165)"><use href="#tx"/></g>

    <!-- Row 3 -->
    <g transform="translate(90 220)"><use href="#tx"/></g>
    <g transform="translate(170 210)"><use href="#txF"/></g>
    <g transform="translate(250 225)"><use href="#tx"/></g>
    <g transform="translate(550 225)"><use href="#tx"/></g>
    <g transform="translate(630 210)"><use href="#tx"/></g>
    <g transform="translate(710 220)"><use href="#tx"/></g>

    <!-- Row 4 -->
    <g transform="translate(90 280)"><use href="#tx"/></g>
    <g transform="translate(170 272)"><use href="#tx"/></g>
    <g transform="translate(250 285)"><use href="#tx"/></g>
    <g transform="translate(330 278)"><use href="#txF"/></g>
    <g transform="translate(470 278)"><use href="#tx"/></g>
    <g transform="translate(550 285)"><use href="#tx"/></g>
    <g transform="translate(630 272)"><use href="#tx"/></g>
    <g transform="translate(710 280)"><use href="#tx"/></g>

    <!-- Center extras -->
    <g transform="translate(355 240)"><use href="#tx"/></g>
    <g transform="translate(445 240)"><use href="#tx"/></g>
    <g transform="translate(400 265)"><use href="#txF"/></g>
  </g>

  <!-- Center hub -->
  <g transform="translate(400 190)">
    <circle cx="0" cy="0" r="52" fill="#05030c" fill-opacity="0.85" stroke="#b57dd6" stroke-opacity="0.55" stroke-width="0.7"/>
    <circle cx="0" cy="0" r="38" fill="none" stroke="#8c47d1" stroke-opacity="0.30" stroke-width="0.4"/>
    <g fill="none" stroke="#d9bff0" stroke-opacity="0.80" stroke-width="0.8" filter="url(#sg)">
      <polygon points="24,0 17,17 0,24 -17,17 -24,0 -17,-17 0,-24 17,-17"/>
    </g>
    <circle cx="0" cy="0" r="1.6" fill="#f5ebd8"/>
    <text x="0" y="44" text-anchor="middle" fill="#f5ebd8" fill-opacity="0.90" class="brand" font-size="11">31 POINTS</text>
  </g>

  <text x="400" y="378" text-anchor="middle" fill="#f5ebd8" class="display" font-size="30">
    Audit SEO<tspan fill="#b57dd6"> &#183; 31 points</tspan>
  </text>
  <text x="400" y="400" text-anchor="middle" fill="#b57dd6" fill-opacity="0.85" class="mono" font-size="8.5">
    DIAGNOSTIC COMPLET &#8212; PME SUISSES
  </text>

  <text x="40" y="46" fill="#f5ebd8" fill-opacity="0.92" class="brand" font-size="10">KUMO</text>
  <text x="760" y="46" text-anchor="end" fill="#b57dd6" fill-opacity="0.70" class="mono" font-size="8">05 / 05</text>
</svg>
